<svg xmlns="http://www.w3.org/2000/svg" viewBox="0 0 800 450" width="100%" height="100%">
  <defs>
    <linearGradient id="v1_bg" x1="0%" y1="0%" x2="100%" y2="100%">
      <stop offset="0%" stop-color="#1e1b4b"/>
      <stop offset="50%" stop-color="#312e81"/>
      <stop offset="100%" stop-color="#4338ca"/>
    </linearGradient>
    <linearGradient id="gold" x1="0%" y1="0%" x2="100%" y2="0%">
      <stop offset="0%" stop-color="#fbbf24"/>
      <stop offset="50%" stop-color="#f59e0b"/>
      <stop offset="100%" stop-color="#d97706"/>
    </linearGradient>
    <radialGradient id="chandelier_glow" cx="50%" cy="50%" r="50%">
      <stop offset="0%" stop-color="#fef08a" stop-opacity="0.9"/>
      <stop offset="50%" stop-color="#f59e0b" stop-opacity="0.4"/>
      <stop offset="100%" stop-color="#312e81" stop-opacity="0"/>
    </radialGradient>
  </defs>
  <rect width="800" height="450" fill="url(#v1_bg)"/>
  
  <!-- Architectural Pillars & Royal Arches -->
  <path d="M60 400 L60 140 Q160 80 260 140 L260 400 Z" fill="#3730a3" opacity="0.6"/>
  <path d="M540 400 L540 140 Q640 80 740 140 L740 400 Z" fill="#3730a3" opacity="0.6"/>
  <path d="M220 400 L220 100 Q400 30 580 100 L580 400 Z" fill="#4338ca" opacity="0.7"/>
  
  <!-- Chandelier Glow & Crystals -->
  <circle cx="400" cy="130" r="140" fill="url(#chandelier_glow)"/>
  <path d="M400 20 L400 80 M340 80 L460 80 M300 110 Q400 150 500 110 M330 140 Q400 170 470 140 M370 165 L430 165 M400 165 L400 195" stroke="#fde047" stroke-width="4" stroke-linecap="round" fill="none"/>
  <circle cx="300" cy="110" r="7" fill="#fef08a"/>
  <circle cx="500" cy="110" r="7" fill="#fef08a"/>
  <circle cx="330" cy="140" r="6" fill="#fef08a"/>
  <circle cx="470" cy="140" r="6" fill="#fef08a"/>
  <circle cx="400" cy="205" r="9" fill="#f59e0b"/>
  
  <!-- Banquet Table Setups -->
  <ellipse cx="400" cy="360" rx="220" ry="45" fill="#1e1b4b" opacity="0.8"/>
  <path d="M240 350 Q400 330 560 350 L580 400 L220 400 Z" fill="#f8fafc" opacity="0.95"/>
  <rect x="290" y="320" width="220" height="30" rx="4" fill="url(#gold)"/>
  <circle cx="400" cy="305" r="15" fill="#f43f5e"/>
  
  <!-- Floating Warm Fairy Lights -->
  <g fill="#fef08a" opacity="0.8">
    <circle cx="120" cy="80" r="4"/><circle cx="180" cy="60" r="3"/><circle cx="240" cy="90" r="5"/>
    <circle cx="680" cy="80" r="4"/><circle cx="620" cy="60" r="3"/><circle cx="560" cy="90" r="5"/>
  </g>
  
  <!-- Top Category Badge -->
  <rect x="24" y="24" width="180" height="32" rx="8" fill="rgba(15, 23, 42, 0.75)" stroke="#818cf8" stroke-width="1.5"/>
  <text x="36" y="45" font-family="sans-serif" font-size="12" font-weight="800" fill="#a5b4fc" letter-spacing="1">🏛️ LUXURY CONVENTION</text>
  
  <!-- Bottom Overlay Bar -->
  <rect x="0" y="365" width="800" height="85" fill="rgba(15, 23, 42, 0.85)"/>
  <text x="30" y="402" font-family="sans-serif" font-size="20" font-weight="800" fill="#ffffff">The Grand Orchid Convention Centre</text>
  <text x="30" y="426" font-family="sans-serif" font-size="13" font-weight="600" fill="#cbd5e1">500+ Seating Capacity • Pillarless AC Grand Ballroom • Valet Parking</text>
</svg>